<svg xmlns="http://www.w3.org/2000/svg" width="23.186" height="32" viewBox="0 0 23.186 32">
  <path id="female" d="M23.186,18.617a1.736,1.736,0,0,1-1.739,1.746A1.654,1.654,0,0,1,20,19.581l-4.112-6.2h-.815v2.4l4.474,7.473a1.149,1.149,0,0,1,.163.6,1.179,1.179,0,0,1-1.159,1.164H15.071v4.946A2.045,2.045,0,0,1,13.042,32h-2.9a2.045,2.045,0,0,1-2.029-2.036V25.018H4.637a1.11,1.11,0,0,1-.815-.346,1.125,1.125,0,0,1-.344-.818,1.149,1.149,0,0,1,.163-.6l4.474-7.473v-2.4H7.3l-4.112,6.2a1.654,1.654,0,0,1-1.449.782,1.674,1.674,0,0,1-1.232-.509A1.687,1.687,0,0,1,0,18.618a1.706,1.706,0,0,1,.29-.964l4.637-6.982A3.814,3.814,0,0,1,8.115,8.727h6.956a3.814,3.814,0,0,1,3.188,1.946L22.9,17.655a1.706,1.706,0,0,1,.29.964ZM15.651,4.073a3.933,3.933,0,0,1-1.187,2.882,3.9,3.9,0,0,1-2.871,1.191A3.9,3.9,0,0,1,8.722,6.954,3.933,3.933,0,0,1,7.535,4.073,3.933,3.933,0,0,1,8.722,1.191,3.9,3.9,0,0,1,11.593,0a3.9,3.9,0,0,1,2.871,1.191A3.933,3.933,0,0,1,15.651,4.073Z" fill="#2e3888"/>
</svg>
