<svg xmlns="http://www.w3.org/2000/svg" width="18.305" height="32" viewBox="0 0 18.305 32">
  <path id="male" d="M18.3,12.217v7.563a1.7,1.7,0,0,1-.5,1.236,1.705,1.705,0,0,1-2.431,0,1.7,1.7,0,0,1-.5-1.236v-6.4H13.726V29.964a1.977,1.977,0,0,1-.59,1.436,1.962,1.962,0,0,1-2.824,0,1.977,1.977,0,0,1-.59-1.436V21.527H8.578v8.436a1.977,1.977,0,0,1-.59,1.436,1.962,1.962,0,0,1-2.824,0,1.977,1.977,0,0,1-.59-1.436V13.382H3.431v6.4a1.7,1.7,0,0,1-.5,1.236,1.641,1.641,0,0,1-1.216.509A1.641,1.641,0,0,1,.5,21.018,1.7,1.7,0,0,1,0,19.782V12.217A3.4,3.4,0,0,1,1,9.745,3.277,3.277,0,0,1,3.43,8.727h11.44A3.283,3.283,0,0,1,17.3,9.745a3.391,3.391,0,0,1,1,2.473ZM13.156,4.073a3.96,3.96,0,0,1-1.171,2.882A3.827,3.827,0,0,1,9.152,8.146,3.827,3.827,0,0,1,6.319,6.954,3.96,3.96,0,0,1,5.148,4.073,3.96,3.96,0,0,1,6.319,1.191,3.827,3.827,0,0,1,9.152,0a3.827,3.827,0,0,1,2.833,1.191A3.96,3.96,0,0,1,13.156,4.073Z" transform="translate(0.002)" fill="#016939"/>
</svg>
