<svg xmlns="http://www.w3.org/2000/svg" width="20" height="24.86" viewBox="0 0 24 29.833">
  <g id="Group_16" data-name="Group 16" transform="translate(-377.351 -190.083)">
    <path id="person" d="M19.987,6.763a3.162,3.162,0,0,1,1.3.266,3.232,3.232,0,0,1,1.885,2.895v8.417a.92.92,0,0,1-1.836,0V10.393c-.141-.453-1.042-.265-1.063,0V28.636c-.23,1.863-2.708,1.316-2.771-.031V17.433c-.159-.72-1.2-.393-1.225.031.044,3.713.032,7.426.032,11.139a1.4,1.4,0,0,1-2.771.031l-.032-18.243c-.144-.443-.98-.273-1,0v7.948a.92.92,0,0,1-1.836,0V9.924A3.2,3.2,0,0,1,12.19,7.029a2.717,2.717,0,0,1,1.257-.266h6.541ZM19.954,2.94a3.029,3.029,0,0,1-6.055,0,3.029,3.029,0,0,1,6.055,0Z" transform="translate(366.676 190.083)" fill="#2e3888"/>
    <path id="heart" d="M7.844,2.8a3.267,3.267,0,0,1-.582,3.032A8.688,8.688,0,0,1,5.817,7.318,7.59,7.59,0,0,1,4,8.62a2.315,2.315,0,0,1-.727-.461A10.4,10.4,0,0,1,.352,5.252,2.767,2.767,0,0,1,.635,2.107,2.391,2.391,0,0,1,4,2.323,2.262,2.262,0,0,1,4.774,1.7,2.372,2.372,0,0,1,7.844,2.8Z" transform="translate(393.351 192.37)" fill="#2e3888"/>
  </g>
</svg>
